<?xml version="1.0" encoding="iso-8859-1"?>
<!-- Uploaded to: SVG Repo, www.svgrepo.com, Generator: SVG Repo Mixer Tools -->
<svg version="1.1" id="Layer_1" xmlns="http://www.w3.org/2000/svg" xmlns:xlink="http://www.w3.org/1999/xlink" 
	 viewBox="0 0 512 512" xml:space="preserve">
<polygon style="fill:#B3D8F5;" points="277.968,89.537 256.022,89.537 234.033,89.537 223.901,103.269 249.683,134.612 
	256.022,134.612 262.318,134.612 288.1,103.269 "/>
<rect x="68.027" y="286.463" style="fill:#C6C5CB;" width="375.947" height="62.346"/>
<g>
	<rect x="68.027" y="286.463" style="fill:#ACABB1;" width="22.672" height="62.346"/>
	<rect x="421.302" y="286.463" style="fill:#ACABB1;" width="22.672" height="62.346"/>
</g>
<path style="fill:#C60024;" d="M445.491,348.803H66.51H40.389v114.202c0,22.797,18.48,41.276,41.276,41.276h26.121h296.428h26.121
	c22.797,0,41.276-18.48,41.276-41.276V348.803H445.491z"/>
<g>
	<path style="fill:#A50020;" d="M66.51,463.005V348.803H40.389v114.202c0,22.797,18.48,41.276,41.276,41.276h26.121
		C84.99,504.281,66.51,485.801,66.51,463.005z"/>
	<path style="fill:#A50020;" d="M445.491,348.803v114.202c0,22.797-18.48,41.276-41.276,41.276h26.121
		c22.797,0,41.276-18.48,41.276-41.276V348.803H445.491z"/>
</g>
<polygon style="fill:#78BAEC;" points="288.1,103.269 277.968,89.537 256.022,89.537 256.022,134.612 262.318,134.612 "/>
<path style="fill:#FED322;" d="M130.323,286.463c0.905-68.643,56.82-124.011,125.677-124.011s124.773,55.369,125.677,124.011h27.839
	c-0.906-84.018-69.284-151.85-153.517-151.85s-152.611,67.833-153.517,151.85H130.323z"/>
<g>
	<rect x="102.483" y="265.375" style="fill:#DDB201;" width="28.857" height="21.088"/>
	<rect x="380.651" y="265.375" style="fill:#DDB201;" width="28.857" height="21.088"/>
</g>
<g>
	<polygon style="fill:#D80029;" points="459.235,95.926 440.099,76.79 451.013,65.874 459.235,74.094 467.374,65.956 478.29,76.872 
			"/>
	<polygon style="fill:#D80029;" points="68.07,159.207 48.933,140.07 59.849,129.155 68.07,137.376 76.21,129.237 87.124,140.154 	
		"/>
</g>
<g>
	<rect x="312.326" y="471.668" style="fill:#FFFFFF;" width="23.475" height="15.437"/>
	<path style="fill:#FFFFFF;" d="M418.116,487.103h-72.357v-15.437h72.357c10.874,0,19.721-8.848,19.721-19.723v-19.651h15.437
		v19.651C453.275,471.329,437.503,487.103,418.116,487.103z"/>
</g>
<rect x="248.282" width="15.437" height="49.8"/>
<rect x="296.998" y="32.764" transform="matrix(-0.4198 0.9076 -0.9076 -0.4198 493.7755 -234.6814)" width="49.8" height="15.437"/>
<rect x="182.37" y="15.566" transform="matrix(-0.9076 0.4198 -0.4198 -0.9076 379.603 -2.6066)" width="15.437" height="49.8"/>
<path d="M95.029,278.745H60.311v37.696v24.644h-27.64v121.921c0,27.016,21.978,48.995,48.995,48.995h348.669
	c27.016,0,48.995-21.978,48.995-48.995V341.085h-27.639v-24.644v-37.696h-34.718c-2.282-39.826-18.99-76.938-47.535-105.199
	c-25.237-24.986-57.305-40.637-91.947-45.228l20.391-24.792l-16.017-21.708h-51.731l-16.017,21.708l20.391,24.792
	c-34.642,4.591-66.709,20.242-91.947,45.228C114.019,201.807,97.309,238.919,95.029,278.745z M75.748,331.878h360.507v9.207H75.748
	V331.878z M463.893,356.522v106.484c0,18.503-15.054,33.557-33.557,33.557H81.666c-18.503,0-33.557-15.054-33.557-33.557V356.522
	h12.202h391.381H463.893z M417.319,294.182h18.934v22.258H75.748v-22.258h18.934h43.258h236.121H417.319z M138.412,278.745
	c4.836-60.547,56.021-108.575,117.588-108.575s112.751,48.028,117.588,108.575H138.412z M233.682,103.011l4.247-5.756h36.14
	l4.247,5.756l-19.643,23.882h-5.346L233.682,103.011z M256.001,142.331c76.918,0,140.621,60.505,145.506,136.414h-12.424
	c-2.246-32.389-16.048-62.515-39.336-85.52c-25.129-24.822-58.422-38.492-93.746-38.492s-68.617,13.67-93.746,38.492
	c-23.288,23.004-37.09,53.131-39.336,85.52h-12.424C115.379,202.835,179.082,142.331,256.001,142.331z"/>
</svg>